PathFileType	4	(X/Y/Z)	C:\Users\Basilio\Documents\Thesis Gigler\squatting_fais\c3dfiles\075\SJ_pre3\markers_experimental.trc
DataRate	CameraRate	NumFrames	NumMarkers	Units	OrigDataRate	OrigDataStartFrame	OrigNumFrames
200.000000	200.000000	4	61	mm	200.000000	208	1664
Frame#	Time	FHD			LBHD			RBHD			C7			T10			CLAV			LSHO			LUUPA			LMUPA			LDUPA			LLEP			LMEP			LRAD			LUL			LRFIN			RSHO			RUPA1			RMUPA			RDUPA			RLEP			RMEP			RRAD			RUL			RUFIN			LASI			RASI			USACR			LSACR			RSACR			LTHI1			LTHI2			LTHI3			LTHI4			LLFC			LMFC			LTIB1			LTIB2			LTIB3			LTIB4			LLMAL			LMMAL			LHEE			LMT1			LMT2			LMT5			RTHI			RTHI2			RTHI3			RTHI4			RLFC			RMFC			RTIB1			RTIB2			RTIB3			RTIB4			RLMAL			RMMAL			RHEE			RMT1			RMT2			RMT5			
		X1	Y1	Z1	X2	Y2	Z2	X3	Y3	Z3	X4	Y4	Z4	X5	Y5	Z5	X6	Y6	Z6	X7	Y7	Z7	X8	Y8	Z8	X9	Y9	Z9	X10	Y10	Z10	X11	Y11	Z11	X12	Y12	Z12	X13	Y13	Z13	X14	Y14	Z14	X15	Y15	Z15	X16	Y16	Z16	X17	Y17	Z17	X18	Y18	Z18	X19	Y19	Z19	X20	Y20	Z20	X21	Y21	Z21	X22	Y22	Z22	X23	Y23	Z23	X24	Y24	Z24	X25	Y25	Z25	X26	Y26	Z26	X27	Y27	Z27	X28	Y28	Z28	X29	Y29	Z29	X30	Y30	Z30	X31	Y31	Z31	X32	Y32	Z32	X33	Y33	Z33	X34	Y34	Z34	X35	Y35	Z35	X36	Y36	Z36	X37	Y37	Z37	X38	Y38	Z38	X39	Y39	Z39	X40	Y40	Z40	X41	Y41	Z41	X42	Y42	Z42	X43	Y43	Z43	X44	Y44	Z44	X45	Y45	Z45	X46	Y46	Z46	X47	Y47	Z47	X48	Y48	Z48	X49	Y49	Z49	X50	Y50	Z50	X51	Y51	Z51	X52	Y52	Z52	X53	Y53	Z53	X54	Y54	Z54	X55	Y55	Z55	X56	Y56	Z56	X57	Y57	Z57	X58	Y58	Z58	X59	Y59	Z59	X60	Y60	Z60	X61	Y61	Z61	

209	1.04	-194.0043945312501	1699.532104492188	-919.7387695312502	-331.7912597656251	1567.620239257813	-980.2473754882815	-290.5167541503907	1608.415893554688	-826.4909667968752	-366.5381469726563	1460.556518554688	-915.467224121094	-390.6849975585939	1135.329833984375	-911.0415039062502	-224.2004547119141	1396.256958007813	-920.434753417969	-276.5007019042969	1428.4892578125	-1078.051879882813	-334.8098754882813	1276.721435546875	-1234.957275390625	-299.3331298828126	1240.221557617188	-1227.505737304688	-334.3601989746094	1216.949462890625	-1272.131958007813	-331.0771789550782	1132.630859375	-1297.267944335938	-407.9253845214845	1124.306518554688	-1245.45361328125	-300.3677673339844	949.703063964844	-1129.85595703125	-261.8949890136719	913.3546142578127	-1183.263793945313	-249.8948974609376	947.8480224609377	-1094.995239257813	-258.4581604003907	1435.167114257813	-757.2871093750001	-311.5899353027344	1292.477783203125	-596.0535278320314	-283.4103088378907	1251.23876953125	-600.1936645507814	-320.6340942382813	1234.928344726563	-555.1521606445314	-321.5742492675782	1166.549682617188	-528.0402221679689	-397.2559509277345	1141.25634765625	-557.3060302734376	-245.7271423339844	940.9212036132815	-639.3028564453126	-286.3007202148438	966.889343261719	-698.4191894531251	-228.3022003173829	960.7920532226565	-734.5670166015626	-227.8853454589844	947.6350708007815	-1041.46630859375	-217.5024566650391	962.250427246094	-788.569519042969	-379.8295593261719	1035.854370117188	-912.443054199219	-388.0929565429689	1003.382385253906	-938.4012451171877	-385.2959594726564	1006.499084472656	-881.3841552734377	-296.9933471679688	719.3493041992189	-1115.380981445313	-271.0729370117188	639.8879394531251	-1117.448120117188	-223.5571899414063	642.9241943359376	-1102.89208984375	-299.7070007324219	587.6236572265626	-1107.330200195313	-305.7460937500001	480.4272766113282	-1097.485107421875	-256.7545166015626	463.510467529297	-985.3104248046877	-258.7045898437501	353.9185180664063	-1079.708129882813	-324.1210021972657	320.9086303710938	-1126.015869140625	-281.7256164550782	310.7845458984376	-1109.453735351563	-288.8929138183594	229.4702453613282	-1086.191162109375	-374.7859191894532	94.88613891601564	-1103.53173828125	-335.6264038085938	99.96473693847659	-1026.250244140625	-422.2906188964845	50.12053298950197	-1057.5419921875	-209.2983703613282	52.18426895141603	-1068.9921875	-216.6638183593751	57.17139434814455	-1117.496337890625	-261.8007507324219	42.3761329650879	-1165.077392578125	-289.8460083007813	775.3672485351565	-708.9662475585939	-253.6787414550782	720.8743286132814	-708.2258911132814	-222.662094116211	725.1964721679689	-720.5249633789064	-284.9696655273438	640.7389526367189	-712.6389770507814	-301.8042297363282	486.9285278320314	-735.7368164062501	-263.1748962402344	468.1547241210939	-855.7376708984377	-258.5129394531251	333.5924682617188	-784.4908447265627	-314.5670166015626	263.0823059082032	-721.3095092773439	-278.3664550781251	254.2300262451172	-751.1954345703126	-287.2515563964844	206.7808990478516	-783.2322387695315	-362.6806030273438	90.70973205566408	-740.1641845703126	-327.9288330078126	107.4705429077149	-820.8443603515627	-408.7353515625001	49.11403274536134	-795.517028808594	-198.6975250244141	58.86706924438478	-775.7559814453127	-205.8982238769532	59.58652496337892	-734.3059082031251	-245.0673065185547	36.01584625244141	-684.8648071289064	
210	1.045	-193.977523803711	1699.504150390625	-919.6862792968752	-331.7423095703126	1567.51513671875	-980.2271118164065	-290.4933166503907	1608.355590820313	-826.529479980469	-366.5522460937501	1460.642822265625	-915.5110473632815	-390.7229614257814	1135.302612304688	-911.0476684570315	-224.2435913085938	1396.303466796875	-920.4592895507815	-276.3913879394532	1428.536010742188	-1078.102416992188	-334.7929992675782	1276.724731445313	-1234.992919921875	-299.2839965820313	1240.281127929688	-1227.523681640625	-334.2955322265626	1216.988037109375	-1272.160400390625	-331.0693664550782	1132.641723632813	-1297.283081054688	-407.9044189453126	1124.284057617188	-1245.450439453125	-300.3788146972657	949.642761230469	-1129.876586914063	-261.8862304687501	913.3770751953127	-1183.264404296875	-249.9881286621094	947.8087158203127	-1094.999633789063	-258.5134887695313	1435.181274414063	-757.2968750000001	-311.7008361816407	1292.433837890625	-596.1163330078126	-283.4278869628907	1251.225219726563	-600.2210693359376	-320.7019348144532	1234.88671875	-555.2111816406251	-321.6764221191407	1166.478881835938	-528.1328125000001	-397.3080444335939	1141.132080078125	-557.4823608398439	-245.7279663085938	940.9132080078127	-639.3615112304689	-286.3925476074219	966.842956542969	-698.4243774414064	-228.3545837402344	960.732849121094	-734.6164550781251	-228.0178985595704	947.5979003906252	-1041.443115234375	-217.511947631836	962.255798339844	-788.5476684570315	-379.8441467285157	1035.846435546875	-912.431335449219	-388.1997985839845	1003.359436035156	-938.439880371094	-385.3223876953126	1006.519348144531	-881.424011230469	-297.1065673828126	719.2619628906251	-1115.41357421875	-271.0903625488282	639.9071044921876	-1117.439453125	-223.5423431396485	642.9221191406251	-1102.863159179688	-299.7427368164063	587.5723876953126	-1107.312255859375	-305.6265258789063	480.3696289062501	-1097.498413085938	-256.7757873535157	463.5695800781251	-985.2474365234377	-258.7909240722657	353.8675537109376	-1079.676635742188	-324.2005920410157	321.0181274414063	-1126.017822265625	-281.7684936523438	310.8047790527344	-1109.485595703125	-288.3171386718751	229.4403228759766	-1085.641357421875	-374.7185058593751	94.84963989257814	-1103.537475585938	-335.6188049316407	99.95804595947268	-1026.266967773438	-422.3508300781251	50.1212501525879	-1057.548828125	-209.3075256347657	52.1765480041504	-1068.976196289063	-216.6854248046876	57.16411209106447	-1117.53564453125	-261.7914733886719	42.39266967773438	-1165.065307617188	-289.9487304687501	775.3854980468752	-708.9877319335939	-253.6935729980469	720.9009399414064	-708.2585449218751	-222.718734741211	725.1790771484376	-720.5462646484376	-284.9953308105469	640.7212524414064	-712.6616821289064	-301.8105773925782	486.920379638672	-735.7263183593751	-263.2875976562501	468.1623840332032	-855.770935058594	-258.3342285156251	333.6371459960938	-784.2762451171877	-314.5451660156251	263.1197509765626	-721.2716674804689	-278.3635559082032	254.215316772461	-751.1590576171876	-287.2805175781251	206.6398468017579	-783.318298339844	-362.7937316894532	90.66012573242189	-740.2676391601564	-327.6530761718751	107.4751052856446	-820.8577880859377	-408.7114868164064	49.09101867675783	-795.5043945312502	-198.6872863769532	58.85341262817384	-775.7205200195315	-205.9158935546876	59.52467346191408	-734.4020385742189	-245.0928039550782	36.01798629760743	-684.8806152343751	
211	1.05	-193.946517944336	1699.510375976563	-919.7348632812502	-331.6863403320313	1567.724975585938	-980.2404785156252	-288.7822875976563	1607.931274414063	-829.2149658203127	-366.5677490234376	1460.690795898438	-915.5181274414065	-390.7647094726564	1135.359252929688	-911.0930175781252	-224.2152709960938	1396.308715820313	-920.395202636719	-277.2825622558594	1428.77001953125	-1078.638061523438	-334.7635192871094	1276.751708984375	-1234.98681640625	-299.1607666015626	1240.2958984375	-1227.571166992188	-334.1174316406251	1216.98291015625	-1272.166870117188	-330.9453430175782	1132.706176757813	-1297.270874023438	-407.8383789062501	1124.371704101563	-1245.466674804688	-300.4800720214844	949.6043701171877	-1129.885498046875	-261.9486389160157	913.2792968750002	-1183.326293945313	-249.9019470214844	947.7628173828127	-1095.007080078125	-258.5287170410157	1435.1982421875	-757.3047485351564	-311.7184753417969	1292.374755859375	-596.1793823242189	-283.4844360351563	1251.221069335938	-600.2316894531251	-320.7796936035157	1234.841796875	-555.2733154296876	-321.7101440429688	1166.470947265625	-528.1975097656251	-397.3742065429689	1141.113525390625	-557.4912109375001	-245.7160644531251	940.9431152343752	-639.4303588867189	-286.3646545410157	966.807556152344	-698.4637451171876	-228.3741455078126	960.8009033203127	-734.6746826171876	-227.8020019531251	947.559020996094	-1041.456909179688	-217.4601440429688	962.2603759765627	-788.570983886719	-379.9406127929688	1035.852783203125	-912.4443359375002	-388.1877441406251	1003.368896484375	-938.4709472656252	-385.3992919921876	1006.54052734375	-881.4307861328127	-296.9737854003907	719.2864990234376	-1115.38818359375	-271.1176757812501	639.8925781250001	-1117.48291015625	-223.5201873779297	642.8932495117189	-1102.846435546875	-299.6828613281251	587.5581054687501	-1107.331298828125	-305.7485046386719	480.4260864257814	-1097.518676757813	-256.8567199707032	463.5359802246095	-985.333435058594	-258.8028564453126	353.9344787597657	-1079.69384765625	-324.2033691406251	320.9310607910157	-1126.053588867188	-281.7852172851563	310.7798767089844	-1109.398559570313	-288.3207702636719	229.4193572998047	-1085.643798828125	-374.8412170410157	94.88112640380861	-1103.532470703125	-335.6087951660157	99.9606857299805	-1026.257568359375	-422.313201904297	50.07690048217775	-1057.580078125	-209.2034759521485	52.15456008911134	-1069.034912109375	-216.6076049804688	57.12779998779298	-1117.503784179688	-261.8092651367188	42.33288574218751	-1165.080200195313	-289.9503784179688	775.3972167968752	-709.0032348632814	-253.6903533935547	720.8930053710939	-708.2457885742189	-222.7614288330079	725.1517944335939	-720.5564575195314	-285.0451049804688	640.7221069335939	-712.6464233398439	-301.8517761230469	486.9351806640626	-735.7371826171876	-263.2892456054688	468.1618041992189	-855.7832641601565	-258.3796386718751	333.5975952148438	-784.3147583007815	-314.5443115234376	263.1317443847657	-721.2893676757814	-278.3591918945313	254.2383117675782	-751.1794433593751	-287.2833251953126	206.7321929931641	-783.2564697265627	-362.6768493652344	90.72515106201173	-740.1701660156251	-328.0827636718751	107.4419326782227	-820.9920654296877	-408.7478637695314	49.10872268676759	-795.509948730469	-198.6911315917969	58.85865020751955	-775.7471313476565	-205.9435119628907	59.51614379882814	-734.3733520507814	-245.0836791992188	36.01150512695313	-684.8684692382814	
212	1.055	-193.9329223632813	1699.433349609375	-919.7249145507815	-331.7203063964844	1567.389526367188	-980.1936035156252	-290.5188903808594	1608.347900390625	-826.6450805664065	-366.6322631835938	1460.697998046875	-915.5704345703127	-390.780487060547	1135.359497070313	-911.0874023437502	-224.2576751708985	1396.377197265625	-920.4217529296877	-276.3877563476563	1428.6455078125	-1078.159912109375	-334.7834167480469	1276.7802734375	-1235.053588867188	-298.9618530273438	1240.2646484375	-1227.526611328125	-334.0570068359376	1217.025756835938	-1272.182861328125	-330.8704528808594	1132.7041015625	-1297.289306640625	-407.7770385742189	1124.401611328125	-1245.496337890625	-300.4534606933594	949.6318359375002	-1129.923706054688	-261.9544067382813	913.3363037109377	-1183.3193359375	-250.0146484375001	947.716247558594	-1095.059814453125	-258.6078491210938	1435.191162109375	-757.3234252929689	-311.7787475585938	1292.36669921875	-596.2077636718751	-283.5303039550782	1251.209228515625	-600.3176269531251	-320.7827453613282	1234.825073242188	-555.3721923828126	-321.7686157226563	1166.447509765625	-528.2991333007814	-397.421356201172	1141.089965820313	-557.6649780273439	-245.6968383789063	940.903259277344	-639.4635009765626	-286.3428955078126	966.7989501953127	-698.5272216796876	-228.3995513916016	960.7290039062502	-734.6834716796876	-228.0005035400391	947.5915527343752	-1041.466186523438	-217.4883117675782	962.2570800781252	-788.6004638671877	-379.9314270019532	1035.850952148438	-912.4724731445315	-388.2514648437501	1003.393798828125	-938.5184326171877	-385.4153137207032	1006.519226074219	-881.407653808594	-297.0610961914063	719.2938232421876	-1115.43017578125	-271.1540832519532	639.8521118164064	-1117.463256835938	-223.6489715576172	642.9102783203126	-1102.914916992188	-299.7047729492188	587.5599975585939	-1107.349487304688	-305.7600097656251	480.3949584960939	-1097.513061523438	-256.8980407714844	463.5598754882814	-985.260192871094	-258.8697509765626	353.9448547363282	-1079.737426757813	-324.2409973144532	320.9075927734376	-1126.00244140625	-281.7512512207032	310.7768859863282	-1109.40576171875	-288.9601440429688	229.4302673339844	-1086.146362304688	-374.7518005371094	94.8424530029297	-1103.51171875	-335.6313476562501	99.94956207275393	-1026.24609375	-422.2589111328126	50.0321731567383	-1057.555908203125	-209.3027648925782	52.20890426635744	-1068.98388671875	-216.6327514648438	57.11952972412111	-1117.529052734375	-261.7984619140626	42.36802673339844	-1165.058349609375	-289.9771118164063	775.395446777344	-708.9988403320314	-253.6902160644532	720.9493408203126	-708.2557373046876	-222.7550354003907	725.1663818359376	-720.6070556640626	-285.0439147949219	640.7520751953126	-712.6555175781251	-301.8350524902344	486.9359436035157	-735.7331542968751	-263.3614196777344	468.159393310547	-855.803649902344	-258.3634643554688	333.6448364257813	-784.2965087890627	-314.5777893066407	263.1062927246094	-721.3306884765626	-278.3699951171876	254.226547241211	-751.2078247070314	-287.2674560546876	206.8004150390626	-783.230651855469	-362.7413635253907	90.67185211181642	-740.2600097656251	-327.7804260253907	107.4017486572266	-820.8300781250002	-408.7144775390626	49.04904174804689	-795.5156250000002	-198.7147979736329	58.85476684570314	-775.7567138671877	-205.8936309814454	59.55039215087892	-734.3938598632814	-245.0802764892579	36.0316276550293	-684.8697509765626	
